<?xml version="1.0" encoding="UTF-8"?>
<svg id="Layer_1" xmlns="http://www.w3.org/2000/svg" version="1.1" viewBox="0 0 392.17 392.17">
  <!-- Generator: Adobe Illustrator 29.3.1, SVG Export Plug-In . SVG Version: 2.1.0 Build 151)  -->
  <defs>
    <style>
      .st0 {
        fill: #fff;
      }
    </style>
  </defs>
  <path class="st0" d="M203.35,0c78.38,4.85,139.19,79.08,121.94,157.49-13.3,60.46-66.77,145.98-100.98,198.69-5.14,7.92-15.23,25.94-20.96,31.78-4.66,4.75-11.19,4.45-15.62-.42-6.22-6.84-15.1-22.84-20.62-31.36-34.22-52.79-87.67-138.16-100.98-198.69C48.87,79.11,109.64,4.95,188.06,0h15.29ZM275.7,53.02C222.6-.09,133.15,12.93,96.96,78.23c-27.65,49.88-8.62,93.85,14,140.68,24.21,50.14,54.61,97.07,84,144.2l1.58-.47c24.35-38.15,48.63-76.46,69.9-116.47,14.35-26.99,31.95-61.35,38.97-90.98,8.69-36.68-3.19-75.66-29.7-102.17Z"/>
  <path class="st0" d="M269.29,132.02c0,40.64-32.94,73.58-73.58,73.58s-73.58-32.94-73.58-73.58,32.94-73.58,73.58-73.58,73.58,32.94,73.58,73.58ZM249.39,132c0-29.65-24.04-53.69-53.69-53.69s-53.69,24.04-53.69,53.69,24.04,53.69,53.69,53.69,53.69-24.04,53.69-53.69Z"/>
</svg>